Coordinates
version=1
nRows=4
nColumns=63
inDegrees=yes

Units are S.I. units (second, meters, Newtons, ...)
If the header above contains a line with 'inDegrees', this indicates whether rotational values are in degrees (yes) or radians (no).

endheader
time	pelvis_tilt	pelvis_list	pelvis_rotation	pelvis_tx	pelvis_ty	pelvis_tz	hip_flexion_r	hip_adduction_r	hip_rotation_r	knee_angle_r	knee_angle_r_beta	ankle_angle_r	subtalar_angle_r	mtp_angle_r	hip_flexion_l	hip_adduction_l	hip_rotation_l	knee_angle_l	knee_angle_l_beta	ankle_angle_l	subtalar_angle_l	mtp_angle_l	L5_S1_Flex_Ext	L5_S1_Lat_Bending	L5_S1_axial_rotation	L4_L5_Flex_Ext	L4_L5_Lat_Bending	L4_L5_axial_rotation	L3_L4_Flex_Ext	L3_L4_Lat_Bending	L3_L4_axial_rotation	L2_L3_Flex_Ext	L2_L3_Lat_Bending	L2_L3_axial_rotation	L1_L2_Flex_Ext	L1_L2_Lat_Bending	L1_L2_axial_rotation	L1_T12_Flex_Ext	L1_T12_Lat_Bending	L1_T12_axial_rotation	Abs_r3	Abs_r2	Abs_r1	Abs_t1	Abs_t2	neck_flexion	neck_bending	neck_rotation	arm_flex_r	arm_add_r	arm_rot_r	elbow_flex_r	pro_sup_r	wrist_flex_r	wrist_dev_r	arm_flex_l	arm_add_l	arm_rot_l	elbow_flex_l	pro_sup_l	wrist_flex_l	wrist_dev_l
      0.00000000	      2.52076470	     -5.32502537	     97.97595090	      0.19592229	      1.03703843	      0.31762925	     -7.50235594	      4.18858630	     -8.69999314	      2.92982455	      0.05113508	     18.40050615	     -8.72250162	      0.00000000	     -7.06452391	     -5.74572753	      4.77482313	      0.60523899	      0.01056341	     21.61534502	      4.50393880	      0.00000000	      0.05650386	      0.63599676	     -1.93622639	      0.10493332	      0.84587569	     -2.05724054	      0.09283019	      1.54636253	     -2.05724054	      0.06457826	      1.54636253	     -1.69419810	      0.05246948	      1.29692460	     -1.57318395	      0.03228631	      0.98515899	     -1.45216980	      0.40360142	      7.19452258	    -10.76871034	      0.00000000	      0.00000000	     18.19340712	      0.80401579	      5.71108372	     -6.06961583	    -28.91200720	     38.26155635	    113.18100036	     38.01873795	     -6.19061971	     12.01064424	    -11.65168372	    -15.93898576	     28.73513092	    109.52970128	     70.12394958	      5.94480521	     28.35240492
      0.01785714	      2.02569311	     -5.04210661	     97.90192855	      0.19808642	      1.03699535	      0.31640335	     -8.23817689	      3.96169791	     -9.01653715	      2.06755779	      0.03608569	     18.25957594	     -8.46137801	      0.00000000	     -7.49957315	     -5.39553161	      7.11744285	      0.42217814	      0.00736840	     21.59235505	      1.58319496	      0.00000000	      0.02681028	      0.55309867	     -1.91145206	      0.04978937	      0.73562123	     -2.03091782	      0.04404661	      1.34480411	     -2.03091782	      0.03064147	      1.34480411	     -1.67252055	      0.02489603	      1.12787881	     -1.55305480	      0.01531939	      0.85674984	     -1.43358905	      0.19150316	      6.25676278	    -10.63092293	      0.00000000	      0.00000000	     17.66793984	      0.97232081	      5.83745168	     -6.89035934	    -28.06509424	     37.61240155	    112.84888093	     39.39206806	     -1.93701146	     15.78924863	    -12.33194828	    -16.88925937	     28.45034851	    110.38484443	     75.79492976	      9.73904104	     26.80239487
      0.03571429	      1.61119738	     -4.85734372	     97.77835799	      0.19980694	      1.03685141	      0.31539792	     -8.68996203	      3.72592616	     -9.34828894	      1.60154555	      0.02795224	     18.19268456	     -8.36057770	      0.00000000	     -7.78120612	     -5.07550283	      8.91406686	      0.39220071	      0.00684519	     21.51673579	     -0.76626658	      0.00000000	      0.01260489	      0.48613320	     -1.87631278	      0.02340855	      0.64655716	     -1.99358233	      0.02070858	      1.18198427	     -1.99358233	      0.01440613	      1.18198427	     -1.64177369	      0.01170490	      0.99132283	     -1.52450414	      0.00720244	      0.75302033	     -1.40723459	      0.09003549	      5.49923601	    -10.43548881	      0.00000000	      0.00000000	     17.16978807	      0.96667825	      5.81429935	     -7.29015584	    -27.57884124	     37.45685952	    112.87931949	     40.36321848	      0.42731217	     18.32988732	    -12.78076617	    -17.69078844	     28.16654906	    111.09325365	     79.36468289	     12.80743183	     25.33854959
      0.05357143	      1.24979083	     -4.78303068	     97.78433086	      0.20122313	      1.03657511	      0.31437431	     -8.93834224	      3.49820240	     -9.85490398	      1.38887443	      0.02424043	     18.27300974	     -7.86727064	      0.00000000	     -7.93976466	     -4.81240493	      9.48621004	      0.37229198	      0.00649772	     21.51052940	     -1.44663022	      0.00000000	      0.01532735	      0.41867987	     -1.87403581	      0.02846442	      0.55684423	     -1.99116304	      0.02518130	      1.01797823	     -1.99116304	      0.01751763	      1.01797823	     -1.63978133	      0.01423298	      0.85377199	     -1.52265409	      0.00875805	      0.64853512	     -1.40552685	      0.10948173	      4.73619041	    -10.42282494	      0.00000000	      0.00000000	     16.66144036	      1.13317767	      5.34024176	     -7.41061570	    -27.39049354	     37.85554126	    113.24845990	     40.70755887	      0.80270284	     19.49546805	    -13.23148138	    -18.41242878	     27.89133138	    112.11362399	     80.77624406	     14.04401059	     25.76892438
